<svg width="280" height="50" viewBox="0 0 280 50" fill="none" xmlns="http://www.w3.org/2000/svg">
<path d="M56.5938 24.4148C56.5938 17.1183 60.6162 13.1895 65.4805 13.1895C69.5965 13.1895 71.6545 15.8087 71.6545 18.3344C71.6545 20.673 70.2513 21.9827 68.7546 21.9827C68.474 21.9827 68.2869 21.9827 68.0062 21.7956C68.8481 21.0472 69.3158 20.0182 69.3158 18.3344C69.3158 15.7152 68.0998 13.9378 65.4805 13.9378C61.5516 13.9378 59.4001 17.8667 59.4001 24.4148C59.4001 30.5888 61.271 34.4241 65.7612 34.4241C69.3159 34.4241 71.2803 32.6468 72.3093 30.4953L72.8706 30.8694C71.748 33.021 69.7836 35.3596 65.5741 35.3596C59.8678 35.4531 56.5938 30.963 56.5938 24.4148Z" fill="#B37C82"/>
<path d="M86.7164 29.3731H78.2038L76.3329 34.1439L78.2973 34.7052V35.0794H73.1523V34.7052L75.1168 34.1439L82.6004 15.1543H83.1616L91.2065 34.1439L93.1709 34.7052V35.0794H86.4357V34.7052L88.4002 34.1439L86.7164 29.3731ZM78.578 28.4377H86.3422L82.3197 18.709L78.578 28.4377Z" fill="#B37C82"/>
<path d="M95.3223 34.7058L97.0061 34.1445V16.371L95.3223 15.8097V15.4355H101.216V15.8097L99.5318 16.371V34.3316H104.115C107.39 34.3316 108.325 33.1155 108.699 29.4673H109.167V35.08H95.4158V34.7058H95.3223Z" fill="#B37C82"/>
<path d="M111.881 15.8097V15.4355H125.351V20.1128H124.883C124.135 16.9323 123.667 16.2774 120.955 16.2774H115.997V24.79L118.897 24.6965C120.487 24.5094 120.767 23.761 121.329 21.8901H121.796V28.3447H121.329C120.767 26.4738 120.58 25.7255 118.709 25.5384H115.997V34.3316H120.767C123.948 34.3316 124.322 33.3962 125.07 30.4963H125.538V35.1735H111.787V34.7993L113.471 34.2381V16.4645L111.881 15.8097Z" fill="#B37C82"/>
<path d="M128.811 15.8097V15.4355H136.668C141.252 15.4355 143.123 17.4935 143.123 20.1128C143.123 22.8256 141.439 24.1352 139.288 24.6029C141.533 24.8836 144.152 26.0061 144.152 29.7479C144.152 33.4897 141.533 35.2671 136.575 35.2671H128.811V34.8929L130.494 34.3316V16.5581L128.811 15.8097ZM132.927 16.2774V24.1352H136.575C139.194 24.1352 140.597 22.545 140.597 20.0192C140.597 17.7742 139.007 16.2774 136.294 16.2774H132.927ZM132.927 24.9771V34.3316H136.481C139.755 34.3316 141.533 33.1155 141.533 29.6544C141.533 26.0997 139.662 24.9771 136.388 24.9771H132.927Z" fill="#B37C82"/>
<path d="M160.149 35.36C155.94 35.36 153.32 33.3956 153.32 29.6538C153.32 26.099 155.752 24.6959 157.998 24.4152C155.846 24.1346 154.256 22.5443 154.256 20.1122C154.256 17.2123 156.407 15.1543 160.71 15.1543C164.733 15.1543 166.51 16.8381 166.51 18.9896C166.51 20.3928 165.762 21.3283 164.265 21.3283C163.891 21.3283 163.517 21.2347 163.143 21.1412C163.891 20.4864 164.172 19.738 164.172 18.8026C164.172 17.3994 163.33 15.8091 160.617 15.8091C158.185 15.8091 156.781 17.3058 156.781 20.0186C156.781 22.7314 158.185 24.1346 161.272 24.1346H170.907V28.0635H170.439C169.691 25.8184 169.223 24.883 166.884 24.7894V29.6538C166.978 33.4891 164.733 35.36 160.149 35.36ZM164.546 29.6538V24.7894H161.459C157.81 24.7894 156.127 25.912 156.127 29.6538C156.127 33.302 157.717 34.7052 160.243 34.7052C162.955 34.7052 164.546 33.302 164.546 29.6538Z" fill="#B37C82"/>
<path d="M178.482 13.8449V13.4707H186.34C190.924 13.4707 192.795 15.7158 192.795 18.6157C192.795 21.5156 191.111 23.1058 188.959 23.48C191.204 23.7607 193.824 25.0703 193.824 29.0927C193.824 33.2087 191.204 35.0796 186.246 35.0796H178.389V34.7054L180.072 34.0506V14.4997L178.482 13.8449ZM182.598 14.3126V23.0123H186.246C188.866 23.0123 190.269 21.2349 190.269 18.5221C190.269 16.09 188.679 14.4062 185.966 14.4062H182.598V14.3126ZM182.598 23.9477V34.2377H186.153C189.427 34.2377 191.204 32.9281 191.204 29.0927C191.204 25.1638 189.333 23.9477 186.059 23.9477H182.598Z" fill="#B37C82"/>
<path d="M196.537 15.8097V15.4355H203.553C208.23 15.4355 210.849 17.2129 210.849 20.9547C210.849 24.4159 208.698 25.9126 204.676 26.1932C205.424 26.6609 206.266 27.0351 207.014 27.0351L211.411 34.2381L213.375 34.7993V35.1735H209.166L203.834 26.1932H200.747V34.1445L202.43 34.7058V35.08H196.537V34.7058L198.221 34.1445V16.371L196.537 15.8097ZM200.747 16.1839V25.4448H203.272C206.827 25.4448 208.324 24.0417 208.324 20.9547C208.324 17.8677 206.734 16.1839 203.272 16.1839H200.747Z" fill="#B37C82"/>
<path d="M222.824 35.36C217.586 35.36 214.031 31.244 214.031 25.2571C214.031 19.3638 217.586 15.1543 222.824 15.1543C228.063 15.1543 231.618 19.3638 231.618 25.2571C231.618 31.244 228.063 35.36 222.824 35.36ZM222.824 34.6116C227.221 34.6116 228.718 30.1215 228.718 25.3507C228.718 20.5799 227.221 15.9962 222.824 15.9962C218.428 15.9962 216.931 20.5799 216.931 25.3507C217.025 30.1215 218.521 34.6116 222.824 34.6116Z" fill="#B37C82"/>
<path d="M252.009 31.0552L256.593 16.3686L254.816 15.8074V15.4332H259.493V15.8074L257.622 16.3686L251.542 35.3582H251.167L245.555 19.4556L240.223 35.3582H239.661L233.955 16.3686L232.178 15.8074V15.4332H238.352V15.8074L236.481 16.3686L240.597 31.1487L245.929 15.2461H246.49L252.009 31.0552Z" fill="#B37C82"/>
<path d="M264.638 17.9613V34.1445L266.602 34.7058V35.08H261.457V34.7058L263.421 34.1445V16.371L261.738 15.8097V15.4355H265.854L276.518 30.4963V16.4645L274.553 15.9033V15.4355H279.698V15.8097L277.64 16.371V35.3606H277.079L264.638 17.9613Z" fill="#B37C82"/>
<path d="M28.6247 31.3375C31.9924 30.6827 34.7052 28.2506 34.7052 24.041C34.7052 20.0186 31.7117 16.3704 24.4152 16.3704H11.7867V17.4929L15.5285 18.4283V28.0635C15.5285 28.7183 16.4639 29.3731 19.2702 29.3731V18.2413H23.854C28.0635 18.2413 30.5892 20.6734 30.5892 24.2281C30.5892 28.0635 28.5312 30.5892 24.6958 30.7763H14.593C7.39005 30.7763 4.49015 25.3507 4.49015 16.3704C4.49015 6.82878 7.76423 1.21609 14.1253 1.21609C18.2413 1.21609 20.2057 3.7418 20.2057 7.57714C20.2057 9.91576 19.3638 11.4125 18.0542 12.535C18.5219 12.7221 18.8961 12.7221 19.2702 12.7221C21.5153 12.7221 23.854 10.8512 23.854 7.48359C23.854 3.83534 20.767 0 14.1253 0C6.36105 0 0 5.6127 0 16.1833C0 25.6313 5.61269 32.0859 14.8736 32.0859C14.9672 32.0859 15.622 32.0859 15.622 32.0859V46.6789L11.8802 47.6143V49.1111H24.5088C32.273 49.1111 36.4825 45.837 36.4825 39.9437C36.389 34.0503 32.273 31.7117 28.6247 31.3375ZM24.2281 48.1756H19.2702V32.273H24.041C29.2796 32.273 32.273 34.6116 32.273 40.2243C32.1794 45.7435 29.4666 48.1756 24.2281 48.1756Z" fill="#B37C82"/>
</svg>
